<?xml version="1.0" standalone="no"?>
<!DOCTYPE svg PUBLIC "-//W3C//DTD SVG 20010904//EN"
 "http://www.w3.org/TR/2001/REC-SVG-20010904/DTD/svg10.dtd">
<svg version="1.0" xmlns="http://www.w3.org/2000/svg"
 width="500.000000pt" height="500.000000pt" viewBox="0 0 500.000000 500.000000"
 preserveAspectRatio="xMidYMid meet">
<metadata>
Created by potrace 1.11, written by Peter Selinger 2001-2013
</metadata>
<g transform="translate(0.000000,500.000000) scale(0.100000,-0.100000)"
fill="#000000" stroke="none">
<path d="M0 2500 l0 -2500 2500 0 2500 0 0 2500 0 2500 -2500 0 -2500 0 0
-2500z m1433 1324 c39 -20 298 -155 574 -300 276 -145 507 -264 512 -264 6 0
263 133 573 296 310 162 577 298 594 301 23 4 38 -1 62 -22 l32 -27 0 -678 c0
-373 3 -681 8 -683 4 -3 141 20 305 51 222 41 305 53 325 46 38 -14 67 -67 56
-106 -17 -57 -38 -64 -374 -126 l-315 -59 0 -129 0 -129 303 -5 304 -5 19 -24
c25 -30 25 -92 0 -122 l-19 -24 -304 -5 -303 -5 -5 -323 -5 -324 -24 -19 c-14
-11 -39 -19 -61 -19 -30 0 -44 6 -64 31 l-26 31 0 314 0 314 -104 0 c-98 0
-106 2 -135 26 -41 35 -43 89 -5 128 26 25 31 26 135 26 l109 0 0 115 0 115
-27 -6 c-254 -47 -257 -47 -293 -9 -32 34 -31 89 2 122 23 22 48 30 170 52
l143 26 3 604 c1 331 -2 601 -6 599 -5 -1 -243 -126 -531 -277 -452 -237 -526
-273 -554 -268 -18 3 -264 128 -547 276 l-515 271 -3 -593 c-1 -325 0 -597 2
-603 2 -6 66 -21 141 -34 163 -28 195 -46 195 -110 0 -45 -29 -86 -66 -93 -14
-2 -69 4 -122 14 -54 10 -109 21 -124 23 l-28 6 0 -115 0 -115 105 0 c99 0
107 -2 130 -25 36 -35 35 -97 -1 -130 -25 -23 -34 -25 -130 -25 l-104 0 0
-314 0 -314 -26 -31 c-28 -33 -75 -42 -116 -20 -43 23 -48 60 -48 379 l0 300
-291 0 c-295 0 -318 3 -346 39 -22 28 -16 89 12 116 l24 25 301 0 300 0 0 133
0 132 -298 54 c-163 30 -311 60 -329 67 -44 17 -67 55 -59 99 7 38 47 75 80
75 19 0 524 -91 583 -105 l22 -5 3 681 3 681 33 29 c18 16 41 29 52 29 11 0
53 -16 93 -36z"/>
</g>
</svg>
