<?xml version="1.0" encoding="UTF-8"?>
<svg width="319px" height="203px" viewBox="0 0 319 203" version="1.1" xmlns="http://www.w3.org/2000/svg" xmlns:xlink="http://www.w3.org/1999/xlink">
    <!-- Generator: Sketch 42 (36781) - http://www.bohemiancoding.com/sketch -->
    <title>AMY</title>
    <desc>Created with Sketch.</desc>
    <defs></defs>
    <g id="Page-1" stroke="none" stroke-width="1" fill="none" fill-rule="evenodd">
        <g id="Artboard" transform="translate(-342.000000, -127.000000)">
            <g id="AMY" transform="translate(342.000000, 127.000000)">
                <rect id="Rectangle" fill="#9BDAE7" x="0" y="0" width="319" height="203"></rect>
                <path d="M138.047194,110.392936 L138.047194,103.500938 L127.109501,101.157147 L127.423795,99.6904432 L138.047194,101.966886 L138.047194,76.9153675 L140.486145,76.9153675 L159.522632,88.0243597 L178.49577,76.9153675 L180.998071,76.9153675 L180.998071,101.876324 L191.198846,99.6904432 L191.51314,101.157147 L180.998071,103.410376 L180.998071,110.392936 L191.25,110.392936 L191.25,111.892936 L180.998071,111.892936 L180.998071,123 L179.287638,123 L179.272057,111.892936 L173.25,111.892936 L173.25,110.392936 L179.269953,110.392936 L179.26068,103.782674 L173.423795,105.033435 L173.109501,103.566731 L179.258529,102.249083 L179.225531,78.7257795 L160.157369,89.8031202 L158.857464,89.5815594 L139.757627,78.7257795 L139.757627,102.333407 L145.51314,103.566731 L145.198846,105.033435 L139.757627,103.867459 L139.757627,110.392936 L144.622641,110.392936 L144.622641,111.892936 L139.757627,111.892936 L139.757627,123 L138.047194,123 L138.047194,111.892936 L128.122641,111.892936 L128.122641,110.392936 L138.047194,110.392936 Z M105.584158,109.231583 L94.3079696,78.5341797 L83.000106,109.231583 L77.8688066,123 L76,123 L93.2627049,76.9153675 L95.3532343,76.9153675 L112.615939,123 L110.747133,123 L105.584158,109.231583 Z M235.584158,90.6837845 L240.747133,76.9153675 L242.615939,76.9153675 L225.353234,123 L223.262705,123 L206,76.9153675 L207.868807,76.9153675 L213.000106,90.6837845 L224.30797,121.381188 L235.584158,90.6837845 Z" id="Combined-Shape" fill="#FFFFFF"></path>
            </g>
        </g>
    </g>
</svg>